<?xml version="1.0" encoding="utf-8"?>
<!-- Generator: Adobe Illustrator 27.9.0, SVG Export Plug-In . SVG Version: 6.00 Build 0)  -->
<svg version="1.1" id="Layer_1" xmlns="http://www.w3.org/2000/svg" xmlns:xlink="http://www.w3.org/1999/xlink" x="0px" y="0px"
	 viewBox="0 0 327.41 75.13" style="enable-background:new 0 0 327.41 75.13;" xml:space="preserve">
<style type="text/css">
	.st0{fill:#FFFFFF;}
	.st1{fill-rule:evenodd;clip-rule:evenodd;fill:#8BC540;}
</style>
<rect class="st0" width="54.29" height="75.13"/>
<g>
	<path class="st1" d="M0.03,0.02h0.59C8.9,0.02,17.17,0.03,25.44,0c0.57,0,0.78,0.24,1,0.65c0.91,1.67,1.9,3.29,2.75,4.99
		c0.92,1.85,1.76,3.75,2.56,5.66c0.73,1.75,1.41,3.52,2.01,5.32c0.53,1.61,0.95,3.26,1.38,4.9c0.29,1.11,0.54,2.24,0.76,3.37
		c0.2,1.02,0.35,2.05,0.46,3.09c0.03,0.29-0.15,0.6-0.26,0.9c-0.26,0.72-0.52,1.44-0.79,2.17c-0.05-0.01-0.1-0.01-0.14-0.02
		c0-0.17,0-0.34,0-0.51c0.04-2.57-0.33-5.09-0.91-7.59c-0.48-2.09-1.2-4.09-2.08-6.04c-1.08-2.38-2.33-4.67-3.76-6.86
		c-0.97-1.5-2.05-2.91-3.22-4.25c-0.32-0.37-0.65-0.72-0.99-1.07c-0.11-0.11-0.25-0.18-0.46-0.2c0.29,0.57,0.57,1.15,0.86,1.72
		c0.62,1.23,1.25,2.46,1.88,3.69c0.59,1.14,1.19,2.27,1.75,3.43c0.47,0.95,0.88,1.93,1.31,2.9c0.34,0.76,0.69,1.52,1,2.29
		c0.32,0.8,0.6,1.62,0.87,2.44c0.29,0.86,0.58,1.72,0.81,2.59c0.29,1.08,0.53,2.18,0.78,3.27c0.29,1.24,0.58,2.48,0.85,3.73
		c0.17,0.79,0.33,1.57,0.45,2.37c0.12,0.79-0.43,1.41-0.67,2.1c-0.07,0.22-0.19,0.42-0.31,0.61c-0.05,0.08-0.14,0.12-0.22,0.18
		c-0.05-0.08-0.14-0.16-0.16-0.25c-0.08-0.63-0.14-1.27-0.22-1.9c-0.13-0.92-0.24-1.85-0.41-2.76c-0.21-1.17-0.45-2.33-0.72-3.48
		c-0.19-0.84-0.41-1.68-0.69-2.5c-0.46-1.33-0.9-2.67-1.48-3.95c-0.62-1.4-1.34-2.76-2.08-4.09c-0.71-1.26-1.44-2.51-2.28-3.68
		c-0.98-1.36-2.07-2.63-3.16-3.9c-0.5-0.58-1.11-1.07-1.68-1.6c-0.09-0.08-0.21-0.11-0.39-0.09c0.31,0.55,0.62,1.11,0.92,1.66
		c0.57,1.01,1.14,2.01,1.69,3.03c0.88,1.61,1.81,3.2,2.6,4.86c0.98,2.06,1.88,4.17,2.73,6.29c0.64,1.6,1.17,3.25,1.71,4.89
		c0.39,1.18,0.78,2.36,1.07,3.56c0.48,1.96,0.82,3.96,1.35,5.9c0.24,0.87-0.01,1.53-0.39,2.23c-0.21,0.38-0.44,0.76-0.72,1.25
		c-0.1-0.22-0.19-0.36-0.21-0.51c-0.16-1.09-0.3-2.18-0.46-3.26c-0.18-1.16-0.33-2.32-0.58-3.47c-0.33-1.53-0.64-3.07-1.14-4.54
		c-0.55-1.66-1.2-3.31-2-4.87c-0.9-1.75-1.98-3.42-3.07-5.06c-1.11-1.66-2.26-3.3-3.54-4.82c-1.15-1.37-2.5-2.57-3.76-3.85
		c-0.05-0.05-0.13-0.06-0.32-0.15c0.23,0.37,0.39,0.64,0.57,0.9c0.8,1.18,1.66,2.33,2.4,3.56c0.73,1.2,1.34,2.48,2.01,3.72
		c0.85,1.58,1.73,3.14,2.54,4.73c0.72,1.43,1.39,2.89,2.04,4.35c0.43,0.97,0.81,1.96,1.2,2.94c0.73,1.84,1.27,3.73,1.67,5.67
		c0.28,1.32,0.52,2.66,0.85,3.96c0.19,0.76,0.56,1.47,0.82,2.21c0.05,0.14,0.02,0.35-0.05,0.48c-0.35,0.6-0.73,1.19-1.23,1.78
		c-0.07-0.23-0.16-0.45-0.2-0.69c-0.2-1.32-0.33-2.66-0.58-3.97c-0.23-1.22-0.56-2.42-0.9-3.61c-0.38-1.32-0.76-2.65-1.24-3.94
		c-0.78-2.09-1.68-4.13-2.72-6.11c-1.02-1.94-2.18-3.78-3.46-5.54c-0.8-1.11-1.76-2.1-2.65-3.15c-1.26-1.5-2.78-2.7-4.34-3.87
		c-0.06-0.04-0.13-0.08-0.2-0.1c-0.02-0.01-0.06,0.01-0.17,0.03c0.09,0.15,0.16,0.29,0.24,0.41c1.09,1.62,2.21,3.21,3.26,4.85
		c1.18,1.84,2.34,3.71,3.41,5.61c1.04,1.84,1.99,3.73,2.91,5.64c0.85,1.76,1.68,3.54,2.35,5.37c0.74,2,1.32,4.06,1.91,6.11
		c0.48,1.68,0.87,3.38,1.28,5.08c0.03,0.13,0,0.3-0.06,0.42c-0.27,0.52-0.56,1.04-0.87,1.55c-0.1,0.16-0.25,0.28-0.45,0.5
		c-0.12-1.16-0.19-2.17-0.35-3.16c-0.15-0.98-0.34-1.95-0.59-2.9c-0.35-1.32-0.78-2.63-1.16-3.94c-0.57-1.98-1.3-3.9-2.27-5.71
		c-1.18-2.18-2.34-4.37-3.91-6.31c-1.18-1.45-2.28-2.96-3.54-4.34c-1.3-1.42-2.73-2.72-4.12-4.06c-0.7-0.68-1.44-1.33-2.17-1.99
		c-0.09-0.08-0.21-0.14-0.31-0.22c-0.03,0.03-0.06,0.06-0.1,0.09c0.32,0.45,0.64,0.89,0.97,1.33c1.33,1.8,2.68,3.59,3.99,5.41
		c0.79,1.1,1.56,2.21,2.3,3.35c0.87,1.34,1.74,2.68,2.51,4.08c0.9,1.64,1.73,3.32,2.52,5.01c0.67,1.41,1.26,2.86,1.84,4.31
		c0.36,0.88,0.68,1.78,0.96,2.69c0.54,1.77,1.05,3.54,1.56,5.32c0.24,0.84,0.46,1.69,0.65,2.54c0.04,0.2-0.04,0.45-0.14,0.64
		c-0.24,0.48-0.5,0.94-0.77,1.4c-0.05,0.09-0.15,0.16-0.24,0.24c-0.07-0.1-0.19-0.2-0.21-0.31c-0.11-0.52-0.18-1.05-0.29-1.57
		c-0.29-1.33-0.56-2.68-0.9-4c-0.41-1.55-0.81-3.12-1.36-4.62c-0.58-1.6-1.27-3.17-2.01-4.7c-0.65-1.34-1.38-2.65-2.18-3.89
		c-0.86-1.33-1.79-2.62-2.78-3.85c-1.36-1.68-2.75-3.34-4.22-4.93c-1.05-1.13-2.21-2.14-3.38-3.15c-1.05-0.91-2.16-1.75-3.25-2.61
		c-0.11-0.09-0.25-0.14-0.41-0.15c0.67,0.77,1.36,1.53,2.01,2.32c1.14,1.38,2.29,2.76,3.37,4.19c1.17,1.54,2.3,3.11,3.38,4.72
		c0.89,1.33,1.68,2.71,2.5,4.09c0.57,0.97,1.14,1.94,1.65,2.94c0.7,1.38,1.35,2.78,2,4.18c0.49,1.07,0.99,2.15,1.42,3.25
		c0.33,0.83,0.55,1.69,0.81,2.55c0.17,0.56,0.32,1.14,0.49,1.7c0.2,0.66,0.43,1.32,0.62,1.99c0.36,1.23,0.73,2.44,1.39,3.54
		c0.08,0.13,0.1,0.39,0.02,0.49c-0.43,0.58-0.9,1.12-1.37,1.67c-0.08,0.09-0.23,0.12-0.35,0.17c-0.05-0.12-0.12-0.24-0.15-0.37
		c-0.21-0.8-0.41-1.61-0.61-2.42c-0.19-0.76-0.39-1.53-0.59-2.29c-0.31-1.16-0.59-2.32-0.95-3.46c-0.41-1.28-0.85-2.56-1.34-3.81
		c-0.66-1.71-1.62-3.26-2.62-4.78c-0.7-1.07-1.41-2.14-2.15-3.18c-0.87-1.21-1.73-2.44-2.69-3.58c-1.13-1.36-2.3-2.68-3.56-3.92
		c-1.15-1.15-2.42-2.18-3.66-3.23c-0.64-0.54-1.37-1-2.03-1.52c-0.16-0.12-0.3-0.37-0.3-0.57C0.01,16.31,0.01,8.28,0.01,0.26
		C0.01,0.2,0.02,0.14,0.03,0.02"/>
	<path class="st1" d="M0.14,25.81c0.42,0.51,0.78,0.93,1.14,1.36c1.04,1.26,2.09,2.5,3.13,3.77C5.2,31.9,6,32.86,6.75,33.86
		c0.91,1.21,1.81,2.44,2.65,3.7c1.11,1.67,2.22,3.35,3.22,5.08c0.76,1.31,1.37,2.7,2.01,4.07c0.53,1.14,1.05,2.29,1.53,3.45
		c0.71,1.73,1.38,3.47,2.05,5.21c0.45,1.17,0.86,2.37,1.31,3.54c0.11,0.29,0.07,0.48-0.13,0.7c-0.38,0.4-0.71,0.84-1.09,1.25
		c-0.1,0.11-0.27,0.16-0.41,0.25c-0.04-0.13-0.1-0.25-0.13-0.38c-0.27-1.32-0.5-2.64-1-3.91c-0.54-1.37-0.95-2.78-1.45-4.16
		c-0.82-2.29-1.87-4.48-3.07-6.6c-0.66-1.17-1.3-2.35-2.07-3.44c-1.14-1.61-2.33-3.2-3.61-4.71c-1.04-1.23-2.19-2.37-3.37-3.47
		c-0.86-0.81-1.83-1.5-2.76-2.24C0.17,31.98-0.01,31.75,0,31.35c0.02-1.72,0-3.45,0-5.17C0,26.07,0.08,25.95,0.14,25.81"/>
	<path class="st1" d="M10.33,73.58c0.57-0.65,1.05-1.23,1.57-1.79c0.1-0.11,0.29-0.22,0.43-0.21c1.32,0.04,2.58-0.23,3.84-0.56
		c1.24-0.33,2.51-0.59,3.74-0.95c2.11-0.61,4.22-1.26,6.4-1.57c1.38-0.2,2.77-0.29,4.14-0.48c2.52-0.34,5.04-0.17,7.56-0.16
		c1.41,0,2.82,0.23,4.23,0.35c1.07,0.09,2.14,0.16,3.21,0.29c0.98,0.12,1.96,0.3,2.94,0.44c0.76,0.11,1.52,0.19,2.27,0.3
		c0.9,0.13,1.81,0.25,2.71,0.43c0.93,0.19,0.93,0.22,0.93,1.18v2.66c0,0.5-0.05,0.51-0.5,0.33c-1.18-0.46-2.37-0.91-3.57-1.33
		c-1-0.35-2-0.69-3.02-0.97c-1.78-0.48-3.57-0.96-5.38-1.35c-1.21-0.25-2.44-0.37-3.68-0.48c-1.63-0.13-3.26-0.23-4.89-0.27
		c-1.24-0.03-2.48-0.01-3.71,0.09c-2.43,0.21-4.88,0.35-7.27,0.91c-1.62,0.38-3.26,0.7-4.88,1.11c-1.84,0.47-3.66,1-5.48,1.52
		c-0.42,0.12-0.82,0.31-1.23,0.46C10.61,73.56,10.51,73.55,10.33,73.58"/>
	<path class="st1" d="M0.01,34.93c0.19,0.12,0.33,0.17,0.42,0.27c0.89,0.88,1.84,1.72,2.65,2.67c1.29,1.5,2.53,3.05,3.7,4.64
		c0.92,1.26,1.77,2.58,2.54,3.93c0.83,1.45,1.52,2.97,2.27,4.47c0.43,0.87,0.88,1.73,1.27,2.62c0.62,1.4,1.19,2.82,1.78,4.23
		c0.67,1.57,1.37,3.14,2.03,4.71c0.06,0.15,0.02,0.42-0.08,0.55c-0.56,0.7-1.15,1.38-1.74,2.05c-0.06,0.08-0.21,0.15-0.28,0.12
		c-0.09-0.03-0.17-0.16-0.19-0.26c-0.2-1.08-0.34-2.17-0.58-3.23c-0.19-0.86-0.46-1.7-0.77-2.52c-0.8-2.07-1.55-4.18-2.51-6.17
		c-0.94-1.93-2.09-3.77-3.2-5.61c-0.62-1.01-1.32-1.98-2.06-2.91c-0.58-0.73-1.25-1.37-1.9-2.03c-0.46-0.47-0.93-0.93-1.41-1.37
		c-0.56-0.52-1.15-1.02-1.72-1.54c-0.1-0.09-0.21-0.25-0.21-0.38C0.01,37.79,0.01,36.41,0.01,34.93"/>
	<path class="st1" d="M14.03,69.48c0.17-0.19,0.4-0.36,0.5-0.58c0.4-0.9,1.23-0.92,2.02-1.07c1.3-0.25,2.61-0.46,3.88-0.8
		c1.77-0.48,3.51-1.07,5.27-1.59c1.1-0.33,2.21-0.66,3.33-0.91c1.61-0.36,3.23-0.7,4.87-0.97c1.37-0.22,2.76-0.34,4.14-0.48
		c0.89-0.09,1.78-0.2,2.67-0.17c1.51,0.04,3.01,0.17,4.52,0.26c1.04,0.06,2.09,0.12,3.13,0.19c1.18,0.08,2.35,0.19,3.53,0.27
		c0.66,0.05,1.33,0.08,1.99,0.09c0.3,0.01,0.41,0.1,0.41,0.41c-0.01,1.17-0.01,2.33,0,3.5c0,0.36-0.06,0.45-0.47,0.29
		c-0.83-0.33-1.69-0.58-2.55-0.81c-1.15-0.32-2.31-0.63-3.49-0.87c-1.38-0.28-2.78-0.52-4.18-0.72c-1.36-0.19-2.74-0.32-4.1-0.47
		c-0.08-0.01-0.15,0-0.23-0.01c-0.9-0.03-1.79-0.11-2.69-0.08c-1.47,0.05-2.95,0.13-4.42,0.28c-1.43,0.14-2.85,0.34-4.27,0.56
		c-1.02,0.16-2.03,0.36-3.04,0.58c-1.32,0.28-2.65,0.55-3.94,0.92c-1.25,0.36-2.46,0.84-3.68,1.26c-1.03,0.35-2.06,0.7-3.08,1.05
		C14.12,69.56,14.07,69.52,14.03,69.48"/>
	<path class="st1" d="M16.47,66.43c0.24-0.32,0.45-0.66,0.71-0.95c0.41-0.46,0.63-1.11,1.25-1.34c0.66-0.25,1.37-0.39,2.05-0.6
		c1.2-0.36,2.41-0.73,3.61-1.08c1.15-0.34,2.31-0.63,3.44-0.99c1.44-0.45,2.85-0.99,4.3-1.43c1.24-0.38,2.51-0.67,3.78-0.98
		c1.03-0.25,2.07-0.49,3.11-0.7c0.61-0.12,1.24-0.17,1.86-0.23c1.38-0.13,2.75-0.25,4.12-0.37c0.41-0.04,0.83-0.08,1.24-0.1
		c0.93-0.04,1.85-0.06,2.78-0.1c1.38-0.06,2.77-0.12,4.14-0.19c0.32-0.02,0.64-0.05,0.96-0.09c0.32-0.04,0.46,0.12,0.46,0.41
		c0,1.31,0,2.61,0,3.92c0,0.34-0.14,0.36-0.45,0.26c-1.24-0.4-2.47-0.81-3.73-1.11c-1.02-0.24-2.07-0.36-3.11-0.49
		c-1.5-0.18-3.01-0.39-4.52-0.45c-1.58-0.07-3.17-0.01-4.75,0.08c-1.26,0.08-2.53,0.25-3.77,0.47c-1.07,0.19-2.12,0.51-3.17,0.78
		c-0.64,0.17-1.29,0.32-1.92,0.52c-0.62,0.2-1.2,0.47-1.81,0.69c-0.8,0.28-1.61,0.52-2.42,0.8c-0.96,0.34-1.94,0.65-2.88,1.06
		c-1.68,0.72-3.33,1.51-5,2.27c-0.05,0.02-0.12,0.02-0.18,0.03C16.55,66.49,16.51,66.46,16.47,66.43"/>
	<path class="st1" d="M0.33,43.24c0.1,0.21,0.17,0.44,0.32,0.61c0.81,0.96,1.69,1.86,2.44,2.86c1.09,1.46,2.13,2.97,3.11,4.51
		c0.69,1.08,1.25,2.25,1.84,3.39c0.47,0.89,0.94,1.78,1.35,2.7c0.91,2.07,1.75,4.17,2.67,6.23c0.4,0.88,0.91,1.72,1.39,2.56
		c0.16,0.28,0.18,0.42-0.09,0.67c-0.47,0.43-0.86,0.96-1.29,1.44c-0.1,0.12-0.23,0.21-0.42,0.37c-0.13-0.43-0.27-0.76-0.34-1.1
		c-0.5-2.4-1.41-4.64-2.6-6.78c-0.94-1.68-1.82-3.4-2.77-5.07c-0.62-1.09-1.27-2.18-1.99-3.2c-0.77-1.08-1.63-2.1-2.47-3.13
		c-0.42-0.51-0.88-0.99-1.3-1.5c-0.1-0.12-0.17-0.3-0.17-0.46c-0.01-1.23-0.01-2.46-0.01-3.68c0-0.07,0.04-0.14,0.06-0.21
		C0.16,43.38,0.24,43.31,0.33,43.24"/>
	<path class="st1" d="M13.7,75.02c0.23-0.09,0.35-0.17,0.47-0.19c0.88-0.15,1.77-0.3,2.66-0.44c1.11-0.17,2.23-0.33,3.34-0.5
		c0.81-0.13,1.62-0.29,2.42-0.42c0.56-0.09,1.12-0.16,1.68-0.23c1-0.13,2-0.27,3-0.36c0.95-0.09,1.91-0.16,2.87-0.19
		c0.81-0.03,1.64-0.04,2.45,0c1.55,0.07,3.11,0.15,4.66,0.28c1.31,0.11,2.62,0.27,3.91,0.47c1.3,0.2,2.6,0.48,3.9,0.73
		c1.18,0.22,2.35,0.44,3.53,0.66c0.18,0.03,0.36,0.08,0.55,0.12C48.88,75.13,14.67,75.21,13.7,75.02"/>
	<path class="st1" d="M0.07,75.1V61.16c0.04-0.01,0.08-0.02,0.12-0.03c0.11,0.24,0.21,0.49,0.33,0.72c0.94,1.81,1.82,3.65,2.86,5.4
		c1.2,2.02,2.53,3.97,3.83,5.93c0.17,0.25,0.22,0.4,0.02,0.62c-0.35,0.38-0.69,0.76-1.05,1.13c-0.08,0.08-0.2,0.17-0.31,0.17
		C3.95,75.11,2.01,75.1,0.07,75.1"/>
	<path class="st1" d="M19.87,62.28c0.38-0.53,0.68-1.01,1.05-1.44c0.17-0.2,0.44-0.36,0.69-0.46c1.14-0.44,2.3-0.85,3.44-1.29
		c1.42-0.55,2.83-1.13,4.25-1.69c1.4-0.55,2.79-1.13,4.2-1.62c1.12-0.39,2.28-0.68,3.43-1c0.74-0.21,1.49-0.41,2.24-0.59
		c1.34-0.31,2.69-0.61,4.04-0.9c0.92-0.2,1.84-0.4,2.77-0.54c0.94-0.14,1.88-0.24,2.83-0.29c1.65-0.09,3.3-0.12,4.95-0.2
		c0.44-0.02,0.56,0.12,0.55,0.55c-0.03,0.84-0.01,1.68-0.01,2.52c0,0.38-0.15,0.43-0.5,0.34c-0.51-0.14-1.03-0.24-1.56-0.31
		c-1.06-0.14-2.12-0.31-3.19-0.36c-1.49-0.07-2.99-0.04-4.48-0.05c-0.4,0-0.79,0-1.19,0.03c-1.5,0.12-3,0.18-4.49,0.39
		c-1.41,0.2-2.82,0.46-4.19,0.85c-1.69,0.47-3.34,1.07-4.99,1.68c-1.25,0.47-2.48,1.01-3.69,1.57c-1.73,0.79-3.43,1.62-5.15,2.43
		c-0.25,0.12-0.47,0.27-0.71,0.39C20.1,62.3,20.01,62.28,19.87,62.28"/>
	<path class="st1" d="M26.68,0.12c0.15-0.03,0.28-0.09,0.41-0.09c1.18-0.01,2.36,0,3.54-0.01c0.27,0,0.39,0.05,0.45,0.37
		c0.07,0.36,0.28,0.69,0.45,1.03c0.47,0.97,0.97,1.92,1.39,2.91c0.69,1.61,1.36,3.23,1.97,4.87c0.51,1.39,0.96,2.81,1.33,4.25
		c0.45,1.7,0.79,3.43,1.19,5.15c0.2,0.88,0.36,1.79,0.66,2.64c0.33,0.94,0.27,1.81-0.16,2.68c-0.16,0.33-0.28,0.68-0.42,1.02
		c-0.05,0-0.1-0.01-0.14-0.01c-0.1-0.39-0.23-0.76-0.3-1.15c-0.26-1.44-0.47-2.88-0.76-4.31c-0.37-1.78-0.7-3.58-1.22-5.32
		c-0.76-2.53-1.8-4.95-3.18-7.22c-1.12-1.86-2.31-3.65-3.78-5.25C27.66,1.18,27.2,0.69,26.68,0.12"/>
	<path class="st1" d="M25.6,54.09c0.54-1.04,1.3-1.61,2.18-2.07c1.76-0.92,3.5-1.88,5.26-2.81c2.01-1.06,4-2.13,6.03-3.14
		c1.08-0.53,2.23-0.95,3.36-1.38c1.5-0.57,3-1.15,4.52-1.63c1.05-0.34,2.15-0.54,3.23-0.78c1.24-0.28,2.49-0.52,3.74-0.81
		c0.29-0.07,0.37,0.03,0.37,0.28c0,0.9,0.02,1.81-0.02,2.71c-0.01,0.15-0.26,0.39-0.41,0.4c-1.08,0.1-2.15,0.13-3.23,0.21
		c-1.42,0.11-2.85,0.18-4.26,0.39c-1.35,0.2-2.69,0.51-4.01,0.84c-1.2,0.3-2.41,0.6-3.57,1.03c-1.6,0.6-3.19,1.26-4.73,2.01
		c-1.41,0.69-2.75,1.52-4.11,2.31c-1.24,0.72-2.47,1.47-3.71,2.2C26.09,53.94,25.89,53.99,25.6,54.09"/>
	<path class="st1" d="M0.01,52.09c0.15,0.1,0.24,0.14,0.29,0.2c1.58,2.01,3.01,4.13,4.27,6.36c0.95,1.68,1.89,3.37,2.76,5.09
		c0.71,1.39,1.28,2.85,1.96,4.25c0.28,0.56,0.67,1.09,1.09,1.55c0.28,0.32,0.23,0.48-0.01,0.75c-0.57,0.63-1.1,1.28-1.66,1.91
		c-0.08,0.1-0.29,0.22-0.34,0.19c-0.12-0.08-0.22-0.24-0.24-0.38c-0.13-0.69-0.16-1.4-0.37-2.06c-0.34-1.05-0.75-2.08-1.21-3.09
		c-0.49-1.07-1.03-2.13-1.61-3.16c-0.87-1.56-1.76-3.11-2.68-4.64c-0.67-1.12-1.42-2.19-2.12-3.29c-0.06-0.1-0.12-0.23-0.12-0.34
		C0.01,54.36,0.01,53.27,0.01,52.09"/>
	<path class="st1" d="M30.69,45.65c0.2-0.84,0.79-1.24,1.36-1.68c1.4-1.06,2.8-2.11,4.19-3.18c1.56-1.19,3.08-2.43,4.68-3.56
		c1.65-1.16,3.34-2.25,5.07-3.28c1.33-0.79,2.74-1.42,4.12-2.13c1.27-0.66,2.53-1.32,3.8-1.98c0.27-0.14,0.39-0.03,0.39,0.23
		c0.01,1.29,0.01,2.58-0.01,3.87c0,0.11-0.21,0.28-0.34,0.3c-1.37,0.21-2.78,0.26-4.11,0.61c-2.03,0.52-4.06,1.14-5.91,2.17
		c-1.96,1.1-3.98,2.12-5.87,3.33c-1.82,1.16-3.52,2.52-5.26,3.8c-0.61,0.45-1.2,0.95-1.8,1.41C30.93,45.61,30.83,45.61,30.69,45.65"
		/>
	<path class="st1" d="M22.92,58.06c0.28-0.49,0.44-0.95,0.75-1.28c0.24-0.26,0.65-0.39,1-0.51c1.64-0.52,3.21-1.17,4.73-1.97
		c2.74-1.42,5.56-2.67,8.46-3.75c1.46-0.54,2.96-0.94,4.46-1.38c1-0.3,2.01-0.58,3.02-0.83c1.02-0.25,2.04-0.47,3.07-0.66
		c1.18-0.21,2.37-0.4,3.56-0.55c0.66-0.08,1.32-0.09,1.99-0.09c0.11,0,0.32,0.2,0.32,0.31c0.03,0.81,0.03,1.62,0,2.42
		c0,0.13-0.25,0.36-0.36,0.35c-2.15-0.21-4.32-0.28-6.48-0.2c-1.27,0.05-2.53,0.21-3.79,0.37c-2.13,0.26-4.22,0.74-6.26,1.41
		c-1.81,0.6-3.62,1.22-5.38,1.96c-1.8,0.76-3.54,1.65-5.29,2.52c-1.12,0.56-2.21,1.17-3.33,1.75
		C23.27,58.01,23.12,58.01,22.92,58.06"/>
	<path class="st1" d="M54.3,2.97c0,1.36,0.01,2.65-0.01,3.94c0,0.11-0.14,0.25-0.25,0.32c-1.68,1.1-3.45,2.08-5.02,3.31
		c-1.57,1.23-3.04,2.64-4.39,4.11c-1.09,1.18-1.95,2.57-2.89,3.88c-0.54,0.77-1.01,1.58-1.53,2.37c-0.07,0.1-0.21,0.15-0.37,0.25
		c-0.01-1.6,0.55-2.9,1.4-4.1c0.53-0.75,1.03-1.51,1.58-2.24c0.97-1.27,1.91-2.56,2.95-3.77c1.05-1.22,2.16-2.39,3.31-3.5
		c1.56-1.51,3.18-2.95,4.78-4.42C53.95,3.04,54.11,3.03,54.3,2.97"/>
	<path class="st1" d="M33.33,40.91c5.87-6.93,12.99-12.36,20.62-17.16c0.08-0.05,0.2-0.02,0.34-0.02c0,1.5,0.01,2.97-0.02,4.45
		c0,0.13-0.21,0.35-0.35,0.38c-0.81,0.15-1.64,0.18-2.43,0.41c-1.28,0.37-2.56,0.75-3.76,1.31c-1.44,0.66-2.83,1.47-4.19,2.3
		c-1.16,0.71-2.28,1.52-3.37,2.34c-0.95,0.71-1.86,1.48-2.74,2.27c-1.26,1.12-2.49,2.28-3.74,3.42
		C33.58,40.7,33.45,40.8,33.33,40.91"/>
	<path class="st1" d="M28.41,50c-0.05-0.57,0.16-0.87,0.5-1.1c1.86-1.19,3.71-2.4,5.59-3.57c1.48-0.92,2.98-1.81,4.49-2.68
		c1.53-0.89,3.08-1.75,4.64-2.61c0.93-0.51,1.87-1.02,2.84-1.45c1.22-0.55,2.46-1.06,3.72-1.53c1.19-0.46,2.42-0.84,3.62-1.27
		c0.35-0.12,0.49-0.02,0.49,0.35c-0.01,1.04-0.01,2.08,0,3.12c0,0.31-0.13,0.4-0.42,0.4c-0.79-0.01-1.59-0.03-2.38,0
		c-1.46,0.07-2.93,0.13-4.36,0.54c-1.38,0.4-2.79,0.72-4.12,1.24c-1.68,0.66-3.36,1.36-4.92,2.26c-2.45,1.42-4.81,3.02-7.19,4.56
		C30.11,48.8,29.32,49.37,28.41,50"/>
	<path class="st1" d="M31.74,0.1c0.23-0.04,0.34-0.08,0.46-0.08c1.14,0,2.27-0.01,3.4,0.01c0.13,0,0.34,0.11,0.38,0.22
		c0.31,0.8,0.63,1.61,0.87,2.44c0.52,1.79,1.03,3.58,1.49,5.39c0.33,1.31,0.59,2.64,0.85,3.97c0.25,1.27,0.48,2.54,0.68,3.82
		c0.05,0.31-0.06,0.65-0.12,0.97c-0.12,0.65-0.25,1.29-0.38,1.94c-0.05,0-0.1,0-0.15,0.01c-0.07-0.28-0.16-0.56-0.21-0.85
		c-0.19-1.05-0.32-2.11-0.56-3.14c-0.37-1.58-0.73-3.17-1.23-4.71c-0.61-1.85-1.27-3.7-2.11-5.46c-0.6-1.27-1.51-2.4-2.32-3.56
		C32.53,0.71,32.14,0.46,31.74,0.1"/>
	<path class="st1" d="M38.43,26.4c0.01-0.17-0.01-0.36,0.04-0.51c0.23-0.65,0.44-1.3,0.73-1.91c0.17-0.35,0.46-0.64,0.71-0.95
		c1.46-1.78,2.9-3.58,4.41-5.33c1-1.16,2.04-2.29,3.16-3.33c1.36-1.26,2.83-2.4,4.23-3.61c0.73-0.64,1.42-1.33,2.13-1.99
		c0.08-0.08,0.21-0.1,0.31-0.15c0.05,0.11,0.13,0.21,0.13,0.32c0.01,0.93,0.02,1.86-0.01,2.8c-0.01,0.14-0.16,0.32-0.29,0.41
		c-1.75,1.17-3.56,2.27-5.26,3.51c-1.2,0.87-2.28,1.91-3.4,2.9c-0.68,0.6-1.32,1.26-1.99,1.88c-1.35,1.27-2.37,2.81-3.49,4.26
		c-0.44,0.57-0.86,1.17-1.28,1.75C38.53,26.43,38.48,26.42,38.43,26.4"/>
	<path class="st1" d="M34.99,36.54c0.02-0.73,0.41-1.18,0.8-1.61c0.88-0.96,1.8-1.88,2.69-2.82c0.58-0.62,1.13-1.27,1.71-1.89
		c0.88-0.93,1.74-1.87,2.67-2.75c0.84-0.8,1.75-1.53,2.63-2.28c0.69-0.6,1.37-1.21,2.08-1.78c0.93-0.74,1.9-1.43,2.86-2.13
		c0.92-0.68,1.85-1.34,2.77-2.01c0.23-0.17,0.47-0.34,0.7-0.51c0.21-0.15,0.38-0.07,0.38,0.17c0.02,1.09,0.01,2.17,0,3.26
		c0,0.11-0.15,0.27-0.26,0.31c-1.03,0.39-2.11,0.67-3.1,1.15c-1.48,0.73-2.95,1.52-4.33,2.41c-1.59,1.03-3.15,2.14-4.62,3.35
		c-1.14,0.94-2.12,2.07-3.16,3.12c-0.54,0.55-1.07,1.11-1.59,1.68c-0.66,0.73-1.31,1.47-1.97,2.21
		C35.21,36.46,35.13,36.47,34.99,36.54"/>
	<path class="st1" d="M36.75,31.48c0.23-0.68,0.4-1.36,0.92-1.93c1.14-1.24,2.23-2.52,3.34-3.79c0.69-0.79,1.38-1.57,2.07-2.35
		c0.71-0.79,1.4-1.59,2.15-2.33c1.1-1.09,2.23-2.15,3.37-3.19c0.94-0.86,1.9-1.68,2.87-2.5c0.79-0.67,1.61-1.3,2.41-1.95
		c0.23-0.18,0.4-0.11,0.41,0.16c0.02,1.13,0.02,2.27-0.01,3.4c0,0.15-0.23,0.36-0.4,0.43c-2.11,0.9-4.21,1.83-6.13,3.11
		c-0.82,0.55-1.59,1.19-2.34,1.85c-0.88,0.78-1.75,1.58-2.56,2.43c-1.02,1.06-1.99,2.18-2.97,3.28c-0.64,0.72-1.27,1.44-1.89,2.17
		c-0.27,0.31-0.52,0.62-0.77,0.95c-0.1,0.13-0.16,0.3-0.24,0.45C36.89,31.61,36.82,31.55,36.75,31.48"/>
	<path class="st1" d="M41.15,14.69c-0.07-1.73,0.58-3.13,1.48-4.43C43.16,9.5,43.8,8.8,44.41,8.1c1.41-1.64,2.87-3.26,4.26-4.93
		c0.71-0.85,1.36-1.76,1.94-2.71c0.24-0.39,0.48-0.46,0.87-0.44c0.79,0.02,1.59,0.02,2.38,0c0.35-0.01,0.45,0.12,0.45,0.46
		c0,1.13-0.02,1.07-1.13,1.8c-1.33,0.88-2.63,1.82-3.88,2.82c-1,0.79-1.97,1.64-2.84,2.57c-0.93,0.98-1.79,2.06-2.59,3.16
		c-0.84,1.15-1.57,2.37-2.35,3.55C41.44,14.48,41.31,14.55,41.15,14.69"/>
	<path class="st1" d="M42.35,8.51c0.1-0.72,0.19-1.45,0.3-2.17c0.15-0.96,0.31-1.92,0.46-2.89c0.16-1.05,0.3-2.11,0.48-3.16
		c0.02-0.11,0.22-0.26,0.33-0.26c1.92-0.02,3.85-0.01,5.84-0.01c-1.36,1.37-2.77,2.62-3.98,4.04c-1.21,1.42-2.23,3-3.33,4.51
		C42.41,8.56,42.38,8.54,42.35,8.51"/>
	<path class="st1" d="M37.03,0.08c0.17-0.02,0.28-0.05,0.4-0.05c0.7,0,1.4-0.02,2.1,0.01c0.14,0.01,0.36,0.13,0.39,0.25
		c0.42,1.27,0.87,2.53,1.19,3.82c0.34,1.35,0.62,2.71,0.24,4.12c-0.25,0.92-0.38,1.87-0.58,2.81c-0.05,0.22-0.16,0.44-0.3,0.65
		C40.55,7.46,39.33,3.64,37.03,0.08"/>
	<path class="st1" d="M42.19,3.08C41.93,2.1,41.68,1.13,41.4,0.1h1.44c-0.17,0.98-0.33,1.98-0.5,2.99
		C42.29,3.09,42.24,3.08,42.19,3.08"/>
</g>
<g>
	<path class="st0" d="M60.77,39.39c0,1.76,0.03,1.98,1.11,2.1l0.45,0.05c0.1,0.08,0.07,0.37-0.03,0.42
		c-0.96-0.03-1.51-0.05-2.18-0.05c-0.71,0-1.31,0.02-2.05,0.05c-0.1-0.05-0.13-0.32-0.03-0.42l0.35-0.05
		c0.97-0.13,1.01-0.33,1.01-2.1V33.2c0-1.43-0.03-1.71-0.79-1.8L58,31.33c-0.12-0.1-0.1-0.35,0.03-0.42
		c0.89-0.12,1.93-0.13,3.32-0.13s2.43,0.18,3.22,0.67c0.77,0.49,1.34,1.36,1.34,2.52c0,1.54-0.96,2.32-1.68,2.67
		c-0.74,0.35-1.63,0.5-2.32,0.5c-0.12-0.05-0.12-0.3-0.02-0.34c1.81-0.34,2.47-1.36,2.47-2.82c0-1.63-0.96-2.69-2.7-2.69
		c-0.89,0-0.91,0.07-0.91,0.6V39.39z"/>
	<path class="st0" d="M72.68,39.39c0,1.76,0.03,2.01,1.01,2.1l0.54,0.05c0.1,0.07,0.07,0.37-0.03,0.42
		c-0.96-0.03-1.53-0.05-2.2-0.05s-1.26,0.02-2.33,0.05c-0.1-0.05-0.13-0.34,0-0.42l0.6-0.05c0.96-0.08,1.04-0.33,1.04-2.1v-7.5
		c0-0.52,0-0.54-0.5-0.54h-0.92c-0.72,0-1.64,0.03-2.06,0.42c-0.4,0.37-0.57,0.74-0.76,1.16c-0.13,0.1-0.37,0.02-0.44-0.12
		c0.27-0.75,0.52-1.83,0.64-2.5c0.05-0.03,0.27-0.05,0.32,0c0.1,0.54,0.65,0.52,1.43,0.52h6.8c0.91,0,1.06-0.03,1.31-0.47
		c0.08-0.03,0.27-0.02,0.3,0.05c-0.18,0.69-0.3,2.05-0.25,2.55c-0.07,0.13-0.35,0.13-0.44,0.03c-0.05-0.42-0.17-1.04-0.42-1.22
		c-0.39-0.29-1.02-0.42-1.95-0.42h-1.19c-0.5,0-0.49,0.02-0.49,0.57V39.39z"/>
	<path class="st0" d="M87.12,39.39c0,1.76,0.03,2.01,1.01,2.1l0.54,0.05c0.1,0.07,0.07,0.37-0.03,0.42
		c-0.96-0.03-1.53-0.05-2.2-0.05s-1.26,0.02-2.33,0.05c-0.1-0.05-0.13-0.34,0-0.42l0.6-0.05c0.96-0.08,1.04-0.33,1.04-2.1v-7.5
		c0-0.52,0-0.54-0.5-0.54h-0.92c-0.72,0-1.64,0.03-2.06,0.42c-0.4,0.37-0.57,0.74-0.76,1.16c-0.13,0.1-0.37,0.02-0.44-0.12
		c0.27-0.75,0.52-1.83,0.64-2.5c0.05-0.03,0.27-0.05,0.32,0c0.1,0.54,0.65,0.52,1.43,0.52h6.8c0.91,0,1.06-0.03,1.31-0.47
		c0.08-0.03,0.27-0.02,0.3,0.05c-0.18,0.69-0.3,2.05-0.25,2.55c-0.07,0.13-0.35,0.13-0.44,0.03c-0.05-0.42-0.17-1.04-0.42-1.22
		c-0.39-0.29-1.02-0.42-1.95-0.42h-1.19c-0.5,0-0.49,0.02-0.49,0.57V39.39z"/>
	<path class="st0" d="M94.42,33.36c0-1.59-0.05-1.88-0.74-1.96l-0.54-0.07c-0.12-0.08-0.12-0.35,0.02-0.42
		c0.94-0.08,2.1-0.13,3.74-0.13c1.04,0,2.03,0.08,2.8,0.5c0.81,0.42,1.39,1.17,1.39,2.35c0,1.59-1.26,2.47-2.1,2.8
		c-0.08,0.1,0,0.27,0.08,0.4c1.34,2.17,2.23,3.51,3.37,4.46c0.29,0.25,0.7,0.44,1.16,0.47c0.08,0.03,0.1,0.17,0.02,0.24
		c-0.15,0.05-0.42,0.08-0.74,0.08c-1.43,0-2.28-0.42-3.47-2.12c-0.44-0.62-1.12-1.78-1.65-2.53c-0.25-0.37-0.52-0.54-1.19-0.54
		c-0.76,0-0.79,0.02-0.79,0.37v2.12c0,1.76,0.03,1.96,1.01,2.1l0.35,0.05c0.1,0.08,0.07,0.37-0.03,0.42c-0.76-0.03-1.33-0.05-2-0.05
		c-0.71,0-1.31,0.02-2.1,0.05c-0.1-0.05-0.13-0.3-0.03-0.42l0.42-0.05c0.97-0.12,1.01-0.33,1.01-2.1V33.36z M95.79,35.76
		c0,0.3,0,0.49,0.05,0.55c0.05,0.05,0.3,0.08,1.16,0.08c0.6,0,1.24-0.07,1.73-0.44c0.45-0.35,0.84-0.94,0.84-2.08
		c0-1.33-0.82-2.58-2.69-2.58c-1.04,0-1.09,0.07-1.09,0.54V35.76z"/>
	<path class="st0" d="M105.24,33.38c0-1.78-0.03-2.06-1.02-2.15l-0.42-0.03c-0.1-0.07-0.07-0.37,0.03-0.42
		c0.84,0.03,1.41,0.05,2.11,0.05c0.67,0,1.24-0.02,2.08-0.05c0.1,0.05,0.13,0.35,0.03,0.42l-0.42,0.03
		c-0.99,0.08-1.02,0.37-1.02,2.15v5.98c0,1.78,0.03,2.01,1.02,2.13l0.42,0.05c0.1,0.07,0.07,0.37-0.03,0.42
		c-0.84-0.03-1.41-0.05-2.08-0.05c-0.71,0-1.28,0.02-2.11,0.05c-0.1-0.05-0.13-0.32-0.03-0.42l0.42-0.05
		c0.99-0.12,1.02-0.35,1.02-2.13V33.38z"/>
	<path class="st0" d="M112.29,39.39c0,1.76,0.03,1.98,1.11,2.1l0.45,0.05c0.1,0.08,0.07,0.37-0.03,0.42
		c-0.96-0.03-1.51-0.05-2.18-0.05c-0.71,0-1.31,0.02-2.05,0.05c-0.1-0.05-0.13-0.32-0.03-0.42l0.35-0.05
		c0.97-0.13,1.01-0.33,1.01-2.1V33.2c0-1.43-0.03-1.71-0.79-1.8l-0.6-0.07c-0.12-0.1-0.1-0.35,0.03-0.42
		c0.89-0.12,1.93-0.13,3.32-0.13s2.43,0.18,3.22,0.67c0.77,0.49,1.34,1.36,1.34,2.52c0,1.54-0.96,2.32-1.68,2.67
		c-0.74,0.35-1.63,0.5-2.32,0.5c-0.12-0.05-0.12-0.3-0.02-0.34c1.81-0.34,2.47-1.36,2.47-2.82c0-1.63-0.96-2.69-2.7-2.69
		c-0.89,0-0.91,0.07-0.91,0.6V39.39z"/>
	<path class="st0" d="M128.14,35.04c0-1.04-0.03-2.97-0.32-3.47c-0.12-0.2-0.42-0.32-0.84-0.35l-0.42-0.03
		c-0.1-0.12-0.07-0.34,0.03-0.4c0.64,0.03,1.26,0.05,1.91,0.05c0.71,0,1.16-0.02,1.76-0.05c0.13,0.08,0.12,0.3,0.03,0.4l-0.4,0.03
		c-0.42,0.03-0.74,0.18-0.84,0.4c-0.24,0.55-0.24,2.48-0.24,3.42v1.9c0,1.46-0.23,3-1.17,4.01c-0.72,0.79-1.96,1.23-3.21,1.23
		c-1.16,0-2.32-0.22-3.14-0.92c-0.89-0.74-1.31-1.96-1.31-3.96v-3.96c0-1.75-0.03-2.03-1.01-2.11l-0.42-0.03
		c-0.1-0.07-0.07-0.35,0.03-0.4c0.84,0.03,1.41,0.05,2.08,0.05c0.69,0,1.24-0.02,2.06-0.05c0.1,0.05,0.13,0.33,0.03,0.4l-0.4,0.03
		c-0.97,0.08-1.01,0.37-1.01,2.11v3.63c0,2.7,0.84,4.48,3.41,4.48c2.43,0,3.36-1.91,3.36-4.46V35.04z"/>
	<path class="st0" d="M136.68,39.39c0,1.76,0.03,2.01,1.01,2.1l0.54,0.05c0.1,0.07,0.07,0.37-0.03,0.42
		c-0.96-0.03-1.53-0.05-2.2-0.05s-1.26,0.02-2.33,0.05c-0.1-0.05-0.13-0.34,0-0.42l0.6-0.05c0.96-0.08,1.04-0.33,1.04-2.1v-7.5
		c0-0.52,0-0.54-0.5-0.54h-0.92c-0.72,0-1.64,0.03-2.06,0.42c-0.4,0.37-0.57,0.74-0.76,1.16c-0.13,0.1-0.37,0.02-0.44-0.12
		c0.27-0.75,0.52-1.83,0.64-2.5c0.05-0.03,0.27-0.05,0.32,0c0.1,0.54,0.65,0.52,1.43,0.52h6.8c0.91,0,1.06-0.03,1.31-0.47
		c0.08-0.03,0.27-0.02,0.3,0.05c-0.18,0.69-0.3,2.05-0.25,2.55c-0.07,0.13-0.35,0.13-0.44,0.03c-0.05-0.42-0.17-1.04-0.42-1.22
		c-0.39-0.29-1.02-0.42-1.95-0.42h-1.19c-0.5,0-0.49,0.02-0.49,0.57V39.39z"/>
	<path class="st0" d="M143.99,33.36c0-1.59-0.05-1.88-0.74-1.96l-0.54-0.07c-0.12-0.08-0.12-0.35,0.02-0.42
		c0.94-0.08,2.1-0.13,3.74-0.13c1.04,0,2.03,0.08,2.8,0.5c0.81,0.42,1.39,1.17,1.39,2.35c0,1.59-1.26,2.47-2.1,2.8
		c-0.08,0.1,0,0.27,0.08,0.4c1.34,2.17,2.23,3.51,3.37,4.46c0.29,0.25,0.7,0.44,1.16,0.47c0.08,0.03,0.1,0.17,0.02,0.24
		c-0.15,0.05-0.42,0.08-0.74,0.08c-1.43,0-2.28-0.42-3.47-2.12c-0.44-0.62-1.12-1.78-1.65-2.53c-0.25-0.37-0.52-0.54-1.19-0.54
		c-0.75,0-0.79,0.02-0.79,0.37v2.12c0,1.76,0.03,1.96,1.01,2.1l0.35,0.05c0.1,0.08,0.07,0.37-0.03,0.42c-0.75-0.03-1.33-0.05-2-0.05
		c-0.71,0-1.31,0.02-2.1,0.05c-0.1-0.05-0.13-0.3-0.03-0.42l0.42-0.05c0.97-0.12,1.01-0.33,1.01-2.1V33.36z M145.37,35.76
		c0,0.3,0,0.49,0.05,0.55c0.05,0.05,0.3,0.08,1.16,0.08c0.6,0,1.24-0.07,1.73-0.44c0.45-0.35,0.84-0.94,0.84-2.08
		c0-1.33-0.82-2.58-2.69-2.58c-1.04,0-1.09,0.07-1.09,0.54V35.76z"/>
	<path class="st0" d="M159.51,38.01c-0.12-0.37-0.19-0.42-0.69-0.42h-2.53c-0.42,0-0.52,0.05-0.64,0.4l-0.59,1.76
		c-0.25,0.75-0.37,1.21-0.37,1.39c0,0.2,0.08,0.3,0.49,0.33l0.55,0.05c0.12,0.08,0.12,0.35-0.03,0.42
		c-0.44-0.03-0.96-0.03-1.75-0.05c-0.55,0-1.16,0.03-1.61,0.05c-0.1-0.07-0.13-0.34-0.03-0.42l0.55-0.05
		c0.4-0.03,0.77-0.22,1.01-0.82c0.3-0.77,0.77-1.86,1.48-3.74l1.71-4.53c0.23-0.6,0.34-0.92,0.29-1.19c0.4-0.12,0.69-0.42,0.87-0.64
		c0.1,0,0.22,0.03,0.25,0.15c0.22,0.74,0.49,1.51,0.74,2.25l2.3,6.75c0.49,1.44,0.71,1.7,1.43,1.78l0.45,0.05
		c0.12,0.08,0.08,0.35,0,0.42c-0.69-0.03-1.28-0.05-2.03-0.05c-0.81,0-1.44,0.03-1.93,0.05c-0.13-0.07-0.15-0.34-0.03-0.42
		l0.49-0.05c0.35-0.03,0.59-0.13,0.59-0.3c0-0.18-0.08-0.49-0.22-0.89L159.51,38.01z M156.18,36.52c-0.13,0.39-0.12,0.4,0.35,0.4
		h2.06c0.49,0,0.52-0.07,0.37-0.52l-0.91-2.74c-0.13-0.4-0.29-0.86-0.39-1.06h-0.03c-0.05,0.08-0.22,0.49-0.4,0.99L156.18,36.52z"/>
	<path class="st0" d="M174.29,38.01c-0.12-0.37-0.18-0.42-0.69-0.42h-2.54c-0.42,0-0.52,0.05-0.64,0.4l-0.59,1.76
		c-0.25,0.75-0.37,1.21-0.37,1.39c0,0.2,0.08,0.3,0.49,0.33l0.55,0.05c0.12,0.08,0.12,0.35-0.03,0.42
		c-0.44-0.03-0.96-0.03-1.75-0.05c-0.55,0-1.16,0.03-1.61,0.05c-0.1-0.07-0.13-0.34-0.03-0.42l0.55-0.05
		c0.4-0.03,0.77-0.22,1.01-0.82c0.3-0.77,0.77-1.86,1.48-3.74l1.71-4.53c0.24-0.6,0.34-0.92,0.29-1.19c0.4-0.12,0.69-0.42,0.87-0.64
		c0.1,0,0.22,0.03,0.25,0.15c0.22,0.74,0.49,1.51,0.74,2.25l2.3,6.75c0.49,1.44,0.71,1.7,1.43,1.78l0.45,0.05
		c0.12,0.08,0.08,0.35,0,0.42c-0.69-0.03-1.28-0.05-2.03-0.05c-0.81,0-1.44,0.03-1.93,0.05c-0.13-0.07-0.15-0.34-0.03-0.42
		l0.49-0.05c0.35-0.03,0.59-0.13,0.59-0.3c0-0.18-0.08-0.49-0.22-0.89L174.29,38.01z M170.97,36.52c-0.13,0.39-0.12,0.4,0.35,0.4
		h2.06c0.49,0,0.52-0.07,0.37-0.52l-0.91-2.74c-0.13-0.4-0.29-0.86-0.39-1.06h-0.03c-0.05,0.08-0.22,0.49-0.4,0.99L170.97,36.52z"/>
	<path class="st0" d="M188.59,40.2c0,0.67,0.1,1.07,0.4,1.19c0.05,0.05,0.05,0.15-0.02,0.2c-0.2,0-0.5,0.07-0.82,0.15
		c-0.89,0.24-2.1,0.44-3,0.44c-2,0-3.83-0.55-5.12-1.86c-1.01-1.01-1.54-2.33-1.54-3.81c0-1.43,0.47-2.87,1.51-3.98
		c1.12-1.17,2.79-1.96,5.32-1.96c0.96,0,1.85,0.18,2.13,0.25c0.32,0.07,0.84,0.18,1.04,0.15c0,0.55,0.1,1.43,0.25,2.43
		c-0.05,0.13-0.35,0.15-0.45,0.05c-0.47-1.81-1.73-2.38-3.44-2.38c-3.26,0-4.68,2.32-4.68,4.83c0,3.22,1.66,5.76,5.04,5.76
		c1.04,0,1.66-0.22,1.85-0.5c0.08-0.12,0.17-0.42,0.17-0.96v-0.67c0-1.41-0.05-1.51-1.09-1.63l-0.74-0.08
		c-0.13-0.07-0.12-0.37,0-0.42c0.49,0.03,1.41,0.05,2.4,0.05c0.65,0,1.22-0.02,1.78-0.05c0.12,0.07,0.13,0.32,0.02,0.42l-0.27,0.03
		c-0.71,0.08-0.72,0.55-0.72,1.41V40.2z"/>
	<path class="st0" d="M192.4,33.36c0-1.59-0.05-1.88-0.74-1.96l-0.54-0.07c-0.12-0.08-0.12-0.35,0.02-0.42
		c0.94-0.08,2.1-0.13,3.74-0.13c1.04,0,2.03,0.08,2.8,0.5c0.81,0.42,1.39,1.17,1.39,2.35c0,1.59-1.26,2.47-2.1,2.8
		c-0.08,0.1,0,0.27,0.08,0.4c1.34,2.17,2.23,3.51,3.37,4.46c0.29,0.25,0.71,0.44,1.16,0.47c0.08,0.03,0.1,0.17,0.02,0.24
		c-0.15,0.05-0.42,0.08-0.74,0.08c-1.43,0-2.28-0.42-3.47-2.12c-0.44-0.62-1.12-1.78-1.65-2.53c-0.25-0.37-0.52-0.54-1.19-0.54
		c-0.75,0-0.79,0.02-0.79,0.37v2.12c0,1.76,0.03,1.96,1.01,2.1l0.35,0.05c0.1,0.08,0.07,0.37-0.03,0.42c-0.75-0.03-1.33-0.05-2-0.05
		c-0.71,0-1.31,0.02-2.1,0.05c-0.1-0.05-0.13-0.3-0.03-0.42l0.42-0.05c0.97-0.12,1.01-0.33,1.01-2.1V33.36z M193.78,35.76
		c0,0.3,0,0.49,0.05,0.55c0.05,0.05,0.3,0.08,1.16,0.08c0.6,0,1.24-0.07,1.73-0.44c0.45-0.35,0.84-0.94,0.84-2.08
		c0-1.33-0.82-2.58-2.69-2.58c-1.04,0-1.09,0.07-1.09,0.54V35.76z"/>
	<path class="st0" d="M201.25,36.49c0-3.36,2.52-5.92,5.97-5.92c3.88,0,5.82,2.8,5.82,5.76c0,3.39-2.58,5.86-5.82,5.86
		C203.5,42.18,201.25,39.51,201.25,36.49z M211.37,36.84c0-2.77-1.23-5.76-4.43-5.76c-1.75,0-4.01,1.19-4.01,4.87
		c0,2.48,1.21,5.71,4.52,5.71C209.46,41.66,211.37,40.15,211.37,36.84z"/>
	<path class="st0" d="M221.92,39.39c0,1.76,0.03,1.98,1.11,2.1l0.45,0.05c0.1,0.08,0.07,0.37-0.03,0.42
		c-0.96-0.03-1.51-0.05-2.18-0.05c-0.71,0-1.31,0.02-2.05,0.05c-0.1-0.05-0.13-0.32-0.03-0.42l0.35-0.05
		c0.97-0.13,1.01-0.33,1.01-2.1V33.2c0-1.43-0.03-1.71-0.79-1.8l-0.6-0.07c-0.12-0.1-0.1-0.35,0.03-0.42
		c0.89-0.12,1.93-0.13,3.32-0.13s2.43,0.18,3.22,0.67c0.77,0.49,1.34,1.36,1.34,2.52c0,1.54-0.96,2.32-1.68,2.67
		c-0.74,0.35-1.63,0.5-2.32,0.5c-0.12-0.05-0.12-0.3-0.02-0.34c1.81-0.34,2.47-1.36,2.47-2.82c0-1.63-0.96-2.69-2.7-2.69
		c-0.89,0-0.91,0.07-0.91,0.6V39.39z"/>
	<path class="st0" d="M229.56,33.35c0-1.75-0.03-2-1.02-2.11l-0.27-0.03c-0.1-0.07-0.07-0.37,0.03-0.42
		c0.72,0.03,1.29,0.05,1.98,0.05h3.16c1.07,0,2.06,0,2.27-0.05c0.1,0.29,0.2,1.49,0.27,2.23c-0.07,0.1-0.34,0.13-0.42,0.03
		c-0.25-0.79-0.4-1.38-1.28-1.59c-0.35-0.08-0.89-0.1-1.63-0.1h-1.21c-0.5,0-0.5,0.03-0.5,0.67v3.36c0,0.47,0.05,0.47,0.55,0.47
		h0.97c0.71,0,1.23-0.03,1.43-0.1c0.2-0.07,0.32-0.17,0.4-0.59l0.13-0.69c0.08-0.1,0.37-0.1,0.44,0.02c0,0.4-0.07,1.06-0.07,1.7
		c0,0.6,0.07,1.24,0.07,1.61c-0.07,0.12-0.35,0.12-0.44,0.02l-0.15-0.65c-0.07-0.3-0.18-0.55-0.52-0.64
		c-0.24-0.07-0.64-0.08-1.29-0.08h-0.97c-0.5,0-0.55,0.02-0.55,0.45v2.37c0,0.89,0.05,1.46,0.32,1.75c0.2,0.2,0.55,0.39,2.03,0.39
		c1.29,0,1.78-0.07,2.15-0.25c0.3-0.17,0.75-0.75,1.19-1.63c0.12-0.08,0.35-0.03,0.42,0.12c-0.12,0.59-0.54,1.88-0.76,2.33
		c-1.51-0.03-3-0.05-4.5-0.05h-1.51c-0.72,0-1.29,0.02-2.28,0.05c-0.1-0.05-0.13-0.32-0.03-0.42l0.55-0.05
		c0.96-0.08,1.04-0.33,1.04-2.1V33.35z"/>
	<path class="st0" d="M239.48,33.36c0-1.59-0.05-1.88-0.74-1.96l-0.54-0.07c-0.12-0.08-0.12-0.35,0.02-0.42
		c0.94-0.08,2.1-0.13,3.74-0.13c1.04,0,2.03,0.08,2.8,0.5c0.81,0.42,1.39,1.17,1.39,2.35c0,1.59-1.26,2.47-2.1,2.8
		c-0.08,0.1,0,0.27,0.08,0.4c1.34,2.17,2.23,3.51,3.37,4.46c0.29,0.25,0.71,0.44,1.16,0.47c0.08,0.03,0.1,0.17,0.02,0.24
		c-0.15,0.05-0.42,0.08-0.74,0.08c-1.43,0-2.28-0.42-3.47-2.12c-0.44-0.62-1.12-1.78-1.65-2.53c-0.25-0.37-0.52-0.54-1.19-0.54
		c-0.75,0-0.79,0.02-0.79,0.37v2.12c0,1.76,0.03,1.96,1.01,2.1l0.35,0.05c0.1,0.08,0.07,0.37-0.03,0.42c-0.75-0.03-1.33-0.05-2-0.05
		c-0.71,0-1.31,0.02-2.1,0.05c-0.1-0.05-0.13-0.3-0.03-0.42l0.42-0.05c0.97-0.12,1.01-0.33,1.01-2.1V33.36z M240.86,35.76
		c0,0.3,0,0.49,0.05,0.55c0.05,0.05,0.3,0.08,1.16,0.08c0.6,0,1.24-0.07,1.73-0.44c0.45-0.35,0.84-0.94,0.84-2.08
		c0-1.33-0.82-2.58-2.69-2.58c-1.04,0-1.09,0.07-1.09,0.54V35.76z"/>
	<path class="st0" d="M251.92,42.18c-1.41,0-2.3-0.44-2.62-0.62c-0.2-0.37-0.42-1.56-0.45-2.35c0.08-0.12,0.33-0.15,0.4-0.05
		c0.25,0.86,0.94,2.5,2.89,2.5c1.41,0,2.1-0.92,2.1-1.93c0-0.74-0.15-1.56-1.38-2.35l-1.59-1.04c-0.84-0.55-1.81-1.51-1.81-2.89
		c0-1.59,1.24-2.89,3.42-2.89c0.52,0,1.12,0.1,1.56,0.22c0.22,0.07,0.45,0.1,0.59,0.1c0.15,0.4,0.3,1.34,0.3,2.05
		c-0.07,0.1-0.34,0.15-0.42,0.05c-0.22-0.81-0.67-1.9-2.28-1.9c-1.65,0-2,1.09-2,1.86c0,0.97,0.81,1.68,1.43,2.06l1.34,0.84
		c1.06,0.66,2.1,1.63,2.1,3.22C255.49,40.92,254.1,42.18,251.92,42.18z"/>
	<path class="st0" d="M263.37,38.01c-0.12-0.37-0.18-0.42-0.69-0.42h-2.54c-0.42,0-0.52,0.05-0.64,0.4l-0.59,1.76
		c-0.25,0.75-0.37,1.21-0.37,1.39c0,0.2,0.08,0.3,0.49,0.33l0.55,0.05c0.12,0.08,0.12,0.35-0.03,0.42
		c-0.44-0.03-0.96-0.03-1.75-0.05c-0.55,0-1.16,0.03-1.61,0.05c-0.1-0.07-0.13-0.34-0.03-0.42l0.55-0.05
		c0.4-0.03,0.77-0.22,1.01-0.82c0.3-0.77,0.77-1.86,1.48-3.74l1.71-4.53c0.24-0.6,0.34-0.92,0.29-1.19c0.4-0.12,0.69-0.42,0.87-0.64
		c0.1,0,0.22,0.03,0.25,0.15c0.22,0.74,0.49,1.51,0.74,2.25l2.3,6.75c0.49,1.44,0.71,1.7,1.43,1.78l0.45,0.05
		c0.12,0.08,0.08,0.35,0,0.42c-0.69-0.03-1.28-0.05-2.03-0.05c-0.81,0-1.44,0.03-1.93,0.05c-0.13-0.07-0.15-0.34-0.03-0.42
		l0.49-0.05c0.35-0.03,0.59-0.13,0.59-0.3c0-0.18-0.08-0.49-0.22-0.89L263.37,38.01z M260.05,36.52c-0.13,0.39-0.12,0.4,0.35,0.4
		h2.06c0.49,0,0.52-0.07,0.37-0.52l-0.91-2.74c-0.13-0.4-0.29-0.86-0.39-1.06h-0.03c-0.05,0.08-0.22,0.49-0.4,0.99L260.05,36.52z"/>
	<path class="st0" d="M269.14,33.01c0-1.17-0.08-1.53-0.79-1.63l-0.37-0.05c-0.13-0.08-0.15-0.35,0.02-0.42
		c1.43-0.08,2.79-0.13,4.21-0.13c1.41,0,2.6,0.1,3.69,0.5c2.27,0.82,3.41,2.74,3.41,4.95c0,2.13-1.02,3.96-2.94,5
		c-1.09,0.59-2.47,0.81-3.76,0.81c-1.07,0-2.15-0.13-2.74-0.13c-0.71,0-1.31,0.02-2.1,0.05c-0.1-0.05-0.13-0.32-0.03-0.42l0.39-0.05
		c0.97-0.13,1.01-0.33,1.01-2.1V33.01z M270.52,39c0,0.89,0.05,1.43,0.34,1.83c0.37,0.52,1.01,0.69,2.06,0.69
		c3.26,0,4.72-2.13,4.72-5.25c0-1.85-0.89-4.97-5.29-4.97c-0.99,0-1.53,0.13-1.66,0.23c-0.13,0.1-0.17,0.52-0.17,1.28V39z"/>
	<path class="st0" d="M286.92,38.01c-0.12-0.37-0.18-0.42-0.69-0.42h-2.54c-0.42,0-0.52,0.05-0.64,0.4l-0.59,1.76
		c-0.25,0.75-0.37,1.21-0.37,1.39c0,0.2,0.08,0.3,0.49,0.33l0.55,0.05c0.12,0.08,0.12,0.35-0.03,0.42
		c-0.44-0.03-0.96-0.03-1.75-0.05c-0.55,0-1.16,0.03-1.61,0.05c-0.1-0.07-0.13-0.34-0.03-0.42l0.55-0.05
		c0.4-0.03,0.77-0.22,1.01-0.82c0.3-0.77,0.77-1.86,1.48-3.74l1.71-4.53c0.24-0.6,0.34-0.92,0.29-1.19c0.4-0.12,0.69-0.42,0.87-0.64
		c0.1,0,0.22,0.03,0.25,0.15c0.22,0.74,0.49,1.51,0.74,2.25l2.3,6.75c0.49,1.44,0.71,1.7,1.43,1.78l0.45,0.05
		c0.12,0.08,0.08,0.35,0,0.42c-0.69-0.03-1.28-0.05-2.03-0.05c-0.81,0-1.44,0.03-1.93,0.05c-0.13-0.07-0.15-0.34-0.03-0.42
		l0.49-0.05c0.35-0.03,0.59-0.13,0.59-0.3c0-0.18-0.08-0.49-0.22-0.89L286.92,38.01z M283.6,36.52c-0.13,0.39-0.12,0.4,0.35,0.4
		h2.06c0.49,0,0.52-0.07,0.37-0.52l-0.91-2.74c-0.13-0.4-0.29-0.86-0.39-1.06h-0.03c-0.05,0.08-0.22,0.49-0.4,0.99L283.6,36.52z"/>
	<path class="st0" d="M300.41,39.39c0,1.76,0.03,2.01,1.01,2.1l0.54,0.05c0.1,0.07,0.07,0.37-0.03,0.42
		c-0.96-0.03-1.53-0.05-2.2-0.05c-0.67,0-1.26,0.02-2.33,0.05c-0.1-0.05-0.13-0.34,0-0.42l0.6-0.05c0.96-0.08,1.04-0.33,1.04-2.1
		v-7.5c0-0.52,0-0.54-0.5-0.54h-0.92c-0.72,0-1.65,0.03-2.06,0.42c-0.4,0.37-0.57,0.74-0.76,1.16c-0.13,0.1-0.37,0.02-0.44-0.12
		c0.27-0.75,0.52-1.83,0.64-2.5c0.05-0.03,0.27-0.05,0.32,0c0.1,0.54,0.65,0.52,1.43,0.52h6.8c0.91,0,1.06-0.03,1.31-0.47
		c0.08-0.03,0.27-0.02,0.3,0.05c-0.18,0.69-0.3,2.05-0.25,2.55c-0.07,0.13-0.35,0.13-0.44,0.03c-0.05-0.42-0.17-1.04-0.42-1.22
		c-0.39-0.29-1.02-0.42-1.95-0.42h-1.19c-0.5,0-0.49,0.02-0.49,0.57V39.39z"/>
	<path class="st0" d="M307.53,33.01c0-1.24-0.07-1.56-0.82-1.63l-0.54-0.05c-0.13-0.1-0.12-0.35,0.02-0.42
		c0.91-0.08,2.05-0.13,3.61-0.13c1.06,0,2.06,0.08,2.82,0.47c0.72,0.35,1.28,1.02,1.28,2.1c0,1.21-0.71,1.83-1.71,2.3
		c0,0.17,0.13,0.22,0.32,0.25c0.91,0.17,2.25,1.01,2.25,2.8c0,1.95-1.44,3.26-4.46,3.26c-0.49,0-1.31-0.05-2.01-0.05
		c-0.74,0-1.31,0.03-1.93,0.05c-0.1-0.05-0.13-0.32-0.03-0.42l0.3-0.05c0.89-0.15,0.92-0.33,0.92-2.1V33.01z M308.9,35.24
		c0,0.47,0.02,0.5,0.87,0.47c1.71-0.07,2.64-0.57,2.64-2.15c0-1.65-1.23-2.27-2.5-2.27c-0.37,0-0.62,0.03-0.77,0.1
		c-0.17,0.05-0.24,0.13-0.24,0.44V35.24z M308.9,39.14c0,0.6,0.03,1.46,0.35,1.83c0.32,0.39,0.82,0.47,1.33,0.47
		c1.49,0,2.64-0.67,2.64-2.35c0-1.33-0.67-2.87-3.34-2.87c-0.91,0-0.97,0.1-0.97,0.44V39.14z"/>
	<path class="st0" d="M317.84,33.35c0-1.76-0.03-2.03-1.01-2.11l-0.42-0.03c-0.1-0.07-0.07-0.37,0.03-0.42
		c0.82,0.03,1.36,0.05,2.12,0.05c0.65,0,1.23-0.02,1.95-0.05c0.1,0.05,0.13,0.35,0.03,0.42l-0.32,0.03
		c-0.97,0.1-1.01,0.35-1.01,2.11v1.93c0,0.32,0.03,0.64,0.22,0.64c0.15,0,0.35-0.1,0.47-0.18c0.24-0.2,0.67-0.64,0.86-0.81l1.81-1.8
		c0.32-0.3,1.14-1.16,1.31-1.39c0.08-0.12,0.12-0.2,0.12-0.27c0-0.07-0.07-0.12-0.29-0.17l-0.45-0.1c-0.12-0.12-0.1-0.33,0.03-0.42
		c0.59,0.03,1.26,0.05,1.85,0.05c0.59,0,1.16-0.02,1.66-0.05c0.12,0.08,0.13,0.32,0.03,0.42c-0.44,0.03-1.09,0.2-1.56,0.47
		s-1.41,1.06-2.35,1.95l-1.51,1.43c-0.24,0.24-0.39,0.39-0.39,0.52c0,0.12,0.1,0.25,0.32,0.52c1.59,1.83,2.89,3.34,4.2,4.72
		c0.4,0.4,0.77,0.62,1.34,0.69l0.45,0.05c0.12,0.08,0.08,0.37-0.03,0.42c-0.44-0.03-1.09-0.05-1.88-0.05
		c-0.69,0-1.28,0.02-2.05,0.05c-0.12-0.03-0.17-0.32-0.07-0.42l0.39-0.07c0.24-0.03,0.4-0.08,0.4-0.17c0-0.1-0.12-0.23-0.24-0.39
		c-0.32-0.4-0.75-0.86-1.39-1.58l-1.34-1.51c-0.96-1.07-1.23-1.41-1.63-1.41c-0.25,0-0.29,0.22-0.29,0.81v2.17
		c0,1.76,0.03,2,0.97,2.1l0.45,0.05c0.1,0.07,0.07,0.37-0.03,0.42c-0.82-0.03-1.39-0.05-2.05-0.05c-0.69,0-1.26,0.02-1.95,0.05
		c-0.1-0.05-0.13-0.3-0.03-0.42l0.34-0.05c0.89-0.13,0.92-0.33,0.92-2.1V33.35z"/>
</g>
</svg>
